Coordinates
version=1
nRows=12
nColumns=34
inDegrees=yes

Units are S.I. units (second, meters, Newtons, ...)
If the header above contains a line with 'inDegrees', this indicates whether rotational values are in degrees (yes) or radians (no).

endheader
time	pelvis_tilt	pelvis_list	pelvis_rotation	pelvis_tx	pelvis_ty	pelvis_tz	hip_flexion_r	hip_adduction_r	hip_rotation_r	knee_angle_r	ankle_angle_r	subtalar_angle_r	mtp_angle_r	hip_flexion_l	hip_adduction_l	hip_rotation_l	knee_angle_l	ankle_angle_l	subtalar_angle_l	mtp_angle_l	lumbar_extension	lumbar_bending	lumbar_rotation	arm_flex_r	arm_add_r	arm_rot_r	elbow_flex_r	pro_sup_r	arm_flex_l	arm_add_l	arm_rot_l	elbow_flex_l	pro_sup_l
      2.73333330	    -13.16976652	      1.78601323	     -0.19666216	      0.00300183	      1.28167804	     -0.09456948	      8.09353944	     -1.21409852	      2.08233161	      0.00000000	      8.85297624	     -9.01951418	      0.00000000	     10.76300809	      1.13424204	      8.94802464	      2.89193268	      5.78678882	     -5.34256263	      0.00000000	     10.81086924	      2.99459970	      3.88368277	    -41.10534079	    -32.06415189	     19.96388813	    101.45388719	     92.24108960	    -29.92110285	    -36.09687263	     27.79058925	    104.07172699	     90.34169016
      2.75000000	    -13.20914215	      1.72178104	     -0.27750564	      0.00217251	      1.28151551	     -0.09506166	      8.13421733	     -1.14877082	      1.99065809	      0.00000000	      8.50161197	     -9.01218761	      0.00000000	     10.78033168	      1.04892268	      8.73644537	      2.82157348	      5.40331709	     -5.31294274	      0.00000000	     10.83790198	      3.12200504	      4.13073056	    -40.79563953	    -32.10505843	     20.26373808	    100.62249848	     92.19701779	    -29.49082785	    -35.86972839	     28.09092395	    103.28213296	     90.55258407
      2.76666670	    -13.21935402	      1.71548048	     -0.27739891	      0.00357971	      1.28189787	     -0.09507437	      8.14357233	     -1.16439030	      1.98509222	      0.00000000	      8.49866679	     -9.01426623	      0.00000000	     10.77177219	      1.04081324	      8.73302419	      2.82929894	      5.39949302	     -5.31353417	      0.00000000	     10.83205261	      3.12484136	      4.13345836	    -40.79056113	    -32.10863054	     20.26215537	    100.61989251	     92.19665355	    -29.48615033	    -35.87045248	     28.08973740	    103.28077375	     90.55334807
      2.78333330	    -13.26350016	      1.67291817	     -0.30513206	      0.00292684	      1.28025028	     -0.09502520	      8.21297841	     -1.11705590	      1.66329821	      0.00000000	      8.18142101	     -9.06034566	      0.00000000	     10.84532238	      1.00129478	      8.50582066	      2.89801397	      5.16027930	     -5.35858459	      0.00000000	     10.69263935	      3.21956764	      4.27018151	    -40.66201190	    -32.27686087	     20.26314084	    100.34980358	     92.17922804	    -29.20053093	    -35.83651838	     27.99393942	    103.18105622	     90.59862352
      2.80000000	    -13.28074295	      1.68118839	     -0.30502460	      0.00341963	      1.27946269	     -0.09440509	      8.21446113	     -1.11279580	      1.66253035	      0.00000000	      8.17796818	     -9.05938052	      0.00000000	     10.82872065	      1.00678749	      8.50632376	      2.90731088	      5.15749861	     -5.35765207	      0.00000000	     10.68862095	      3.22979796	      4.26658099	    -40.66305858	    -32.27558451	     20.26646952	    100.34454404	     92.17904077	    -29.19373658	    -35.83638559	     27.99165171	    103.18115430	     90.59951667
      2.81666670	    -13.27521769	      1.60214501	     -0.30170638	      0.00285457	      1.27624385	     -0.09454107	      8.20704221	     -1.00514382	      1.58545112	      0.00000000	      8.06323552	     -9.04842059	      0.00000000	     10.81417438	      0.91836921	      8.50194045	      2.92032192	      5.09719267	     -5.33389638	      0.00000000	     10.57656106	      3.41834103	      4.39416061	    -40.91540990	    -32.33985593	     20.54760594	    100.08571256	     92.17294216	    -28.93291009	    -35.85791761	     27.81610172	    103.33638035	     90.67643188
      2.83333330	    -13.29437562	      1.62658452	     -0.30442501	      0.00232544	      1.27780422	     -0.09344484	      8.18229670	     -0.99171761	      1.57944080	      0.00000000	      8.06286042	     -9.05111601	      0.00000000	     10.82647510	      0.91864714	      8.50189527	      2.91277017	      5.09878555	     -5.33456826	      0.00000000	     10.57539854	      3.42557010	      4.39325261	    -40.92058828	    -32.33979598	     20.55122275	    100.08305964	     92.17288407	    -28.93182009	    -35.85767077	     27.81492089	    103.33940534	     90.67743638
      2.85000000	    -13.28794037	      1.64288027	     -0.31794872	      0.00107919	      1.27783049	     -0.09385218	      8.15124595	     -0.96665423	      1.57220708	      0.00000000	      8.06404131	     -9.05468213	      0.00000000	     10.86468478	      0.93384097	      8.50270907	      2.88813402	      5.10135625	     -5.33405453	      0.00000000	     10.57309362	      3.43179187	      4.39438133	    -40.92883107	    -32.33848893	     20.55769413	    100.07982634	     92.17302688	    -28.93228958	    -35.85931946	     27.81259161	    103.34285464	     90.67828945
      2.86666670	    -13.33274013	      1.69185878	     -0.37174964	      0.00228692	      1.27836126	     -0.09351853	      8.17062935	     -0.98352293	      1.36146240	      0.00000000	      8.06186220	     -9.15812538	      0.00000000	     10.85936453	      0.94255615	      8.50596077	      2.81059307	      5.11139633	     -5.31086229	      0.00000000	     10.49733917	      3.58232366	      4.47036064	    -41.05427751	    -32.34121965	     20.69548585	    100.01201260	     92.17655291	    -28.85090795	    -35.88359107	     27.70656267	    103.45122196	     90.69534041
      2.88333330	    -13.34426912	      1.57030391	     -0.27217535	      0.00100567	      1.27632554	     -0.09359792	      8.17556532	     -0.83085277	      1.10712323	      0.00000000	      8.01851163	     -9.25785946	      0.00000000	     10.85955765	      0.80939419	      8.56233853	      2.77048919	      5.13548464	     -5.23380515	      0.00000000	     10.45808513	      3.66715598	      4.81132269	    -41.22895077	    -32.36843052	     21.02998403	     99.90259231	     92.18634363	    -28.56014016	    -35.94140672	     27.38225911	    103.78612015	     90.74810757
      2.90000000	    -13.33706690	      1.58425461	     -0.26027292	      0.00204070	      1.27764627	     -0.09347786	      8.19371272	     -0.83254597	      1.10965973	      0.00000000	      8.01713446	     -9.25614403	      0.00000000	     10.85276013	      0.80475068	      8.56236333	      2.77605733	      5.13520383	     -5.23334870	      0.00000000	     10.45695181	      3.67519460	      4.81414792	    -41.22833309	    -32.36658619	     21.03313885	     99.90164546	     92.18639851	    -28.55990430	    -35.94169483	     27.38063797	    103.79012790	     90.74906950
      2.91666670	    -13.29367735	      1.56702532	     -0.20736210	      0.00307085	      1.27793213	     -0.09362797	      8.13375095	     -0.80019352	      1.21430219	      0.00000000	      8.03441678	     -9.16556816	      0.00000000	     10.80096676	      0.80552270	      8.65807780	      2.67413164	      5.16211590	     -5.13548431	      0.00000000	     10.43303325	      3.81996370	      5.02812233	    -41.54341488	    -32.19864003	     21.40812016	     99.69228099	     92.19795026	    -28.73893176	    -35.89123177	     27.27808498	    104.09753829	     90.82618323
